
<svg xmlns="http://www.w3.org/2000/svg" viewBox="0 0 512 512">
	<!-- Stile -->
	<style>
		#circle { fill: #252a35; }

		#arrow {
			--ratio: .85;
			fill: white;
		}

		#play {
			--ratio: .3;
			--x: calc((384px - 199.77957860615885px) * var(--ratio) / 2); /* (L'icona originale non è centrata) */
			fill: white;
		}

		.warp {
			--x: 0px;
			--ratio: 1;
			--shift: calc(512px * (1 - var(--ratio)) / 2);

			scale: var(--ratio);
			translate: calc(var(--x) + var(--shift)) var(--shift);
		}
	</style>

	<!-- Percorsi -->
	<path id="circle" d="M256 512A256 256 0 1 0 256 0a256 256 0 1 0 0 512z" />
	<path id="arrow" class="warp" d="M69.4 210.6C89.8 126.5 165.6 64 256 64c71.1 0 133.1 38.6 166.3 96H368c-8.8 0-16 7.2-16 16s7.2 16 16 16h80.7H464c8.8 0 16-7.2 16-16V80c0-8.8-7.2-16-16-16s-16 7.2-16 16v60.6C408.8 75.5 337.5 32 256 32C149.6 32 60.5 106.2 37.7 205.6C35.5 215.2 43.1 224 53 224c7.9 0 14.6-5.7 16.5-13.4zm373.2 90.9C422.2 385.5 346.4 448 256 448c-71.1 0-133.1-38.6-166.3-96h54.5c8.8 0 16-7.2 16-16s-7.2-16-16-16H63.3 48.2c-8.8 0-16 7.2-16 16v96c0 8.8 7.2 16 16 16s16-7.2 16-16V371.8C103.4 436.6 174.7 480 256 480c106.4 0 195.5-74.2 218.3-173.6c2.2-9.6-5.4-18.4-15.3-18.4c-7.9 0-14.6 5.7-16.5 13.4z" />	
	<path id="play" class="warp" d="M73 39c-14.8-9.1-33.4-9.4-48.5-.9S0 62.6 0 80V432c0 17.4 9.4 33.4 24.5 41.9s33.7 8.1 48.5-.9L361 297c14.3-8.7 23-24.2 23-41s-8.7-32.2-23-41L73 39z" />
</svg>